<svg width="31" height="23" viewBox="0 0 31 23" fill="none" xmlns="http://www.w3.org/2000/svg">
<g id="Group 83">
<g id="Group">
<path id="Vector" opacity="0.952" fill-rule="evenodd" clip-rule="evenodd" d="M24.2187 0.00261775C24.2635 -0.0053139 24.3039 0.00477927 24.3398 0.0328912C25.0848 0.838431 25.8517 1.62554 26.6406 2.39422C25.8838 3.19144 25.127 3.9886 24.3701 4.78582C23.5704 4.00634 22.7934 3.20912 22.0391 2.39422C22.755 1.58745 23.4816 0.790248 24.2187 0.00261775Z" fill="#EFEFEF"/>
</g>
<g id="Group_2">
<path id="Vector_2" opacity="0.98" fill-rule="evenodd" clip-rule="evenodd" d="M31 11.9304C31 12.6973 31 13.4642 31 14.2312C30.8672 15.1466 30.6654 16.0549 30.3945 16.9558C25.5105 17.0264 20.6264 17.0365 15.7422 16.9861C15.2706 16.9724 14.8165 16.8816 14.3799 16.7136C13.7849 20.1139 11.7768 22.0614 8.35547 22.5564C6.79487 22.7602 5.26101 22.6391 3.75391 22.1931C1.57252 21.372 0.321214 19.8078 0 17.5007C0 16.8952 0 16.2898 0 15.6843C0.233794 14.4568 0.55671 13.2459 0.96875 12.0515C1.94509 12.313 2.91384 12.6056 3.875 12.9294C3.93119 12.9529 3.97155 12.9933 3.99609 13.0505C3.6744 13.9728 3.49276 14.9214 3.45117 15.8962C3.47498 17.5958 4.32264 18.6251 5.99414 18.9841C7.46077 19.3196 8.83318 19.0976 10.1113 18.3181C10.6042 17.9265 10.9372 17.432 11.1104 16.8347C11.2868 15.7395 11.1052 14.7102 10.5654 13.7468C10.1769 13.1514 9.80351 12.546 9.44531 11.9304C10.3508 10.7825 11.2792 9.65238 12.2305 8.53977C12.9056 9.97086 13.5817 11.4038 14.2588 12.8386C14.5507 13.2623 14.9442 13.4439 15.4395 13.3835C16.853 11.1928 18.6291 9.34613 20.7676 7.84348C22.9178 6.50061 25.1985 6.2181 27.6094 6.99583C29.2384 7.71651 30.2777 8.9375 30.7275 10.6589C30.8323 11.0882 30.9232 11.512 31 11.9304ZM24.4004 10.0534C26.1799 9.96577 27.1385 10.8134 27.2764 12.5964C27.3066 12.8985 27.3167 13.2012 27.3066 13.5046C24.7232 13.5147 22.1399 13.5046 19.5566 13.4743C20.2428 12.546 21.0501 11.7386 21.9785 11.0525C22.7156 10.5321 23.5228 10.1991 24.4004 10.0534Z" fill="#EFEFEF"/>
</g>
</g>
</svg>
