<svg width="16" height="22" viewBox="0 0 16 22" fill="none" xmlns="http://www.w3.org/2000/svg">
<g id="Group">
<path id="Vector" opacity="0.985" fill-rule="evenodd" clip-rule="evenodd" d="M7.04797 0.00517412C10.7969 -0.106823 13.2973 1.59938 14.5494 5.12378C15.4844 8.5266 15.3276 11.8802 14.0787 15.1845C12.2934 19.2426 9.18497 21.4882 4.75343 21.9211C4.02923 22.0003 3.30362 22.0198 2.57655 21.9799C2.03103 21.8462 1.70744 21.503 1.60577 20.9503C1.56653 20.1462 1.56653 19.3422 1.60577 18.5381C1.83882 17.671 2.39775 17.3376 3.28256 17.5379C5.72337 17.602 7.64532 16.6508 9.04835 14.6844C7.6202 15.0329 6.18858 15.0329 4.75343 14.6844C2.21618 13.8338 0.676717 12.0982 0.134909 9.47754C-0.339004 6.59553 0.435671 4.11465 2.45888 2.03497C3.76989 0.859659 5.29959 0.183061 7.04797 0.00517412ZM7.22448 4.35893C8.40923 4.31881 9.22309 4.84832 9.66611 5.94747C10.0259 6.95637 10.1829 7.99574 10.1368 9.0657C9.64617 9.95405 8.89114 10.4541 7.87166 10.566C6.08968 10.6868 5.11891 9.85326 4.95935 8.06551C4.85091 6.78216 5.25293 5.69372 6.16546 4.80019C6.49781 4.58851 6.85082 4.44142 7.22448 4.35893Z" fill="#EFEFEF"/>
</g>
</svg>
