<svg width="14" height="25" viewBox="0 0 14 25" fill="none" xmlns="http://www.w3.org/2000/svg">
<path opacity="0.515" fill-rule="evenodd" clip-rule="evenodd" d="M13.116 1.67629C13.0694 1.23141 13.0537 0.778098 13.0691 0.316246C9.03585 0.316246 5.00261 0.316246 0.969383 0.316246C0.984719 0.778098 0.969102 1.23141 0.922485 1.67629C0.922485 1.20731 0.922485 0.738329 0.922485 0.269348C4.987 0.269348 9.05146 0.269348 13.116 0.269348C13.116 0.738329 13.116 1.20731 13.116 1.67629Z" fill="#EFEFEF"/>
<path opacity="0.991" fill-rule="evenodd" clip-rule="evenodd" d="M13.116 1.67627C12.1969 1.87033 11.2902 2.12827 10.3959 2.45008C10.1306 2.567 9.88048 2.70769 9.64552 2.87217C9.54624 2.95335 9.47589 3.05497 9.43448 3.177C9.4032 9.39883 9.4032 15.6206 9.43448 21.8424C9.51791 22.0353 9.65077 22.1837 9.83311 22.288C10.8576 22.8509 11.9518 23.2026 13.116 23.3432C13.116 23.8278 13.116 24.3124 13.116 24.797C9.05146 24.797 4.987 24.797 0.922485 24.797C0.922485 24.3124 0.922485 23.8278 0.922485 23.3432C1.81997 23.2048 2.69542 22.9781 3.54878 22.6631C3.83532 22.559 4.10109 22.4183 4.34604 22.2411C4.46826 22.1502 4.55422 22.0329 4.60398 21.8893C4.63526 15.6675 4.63526 9.44572 4.60398 3.2239C4.31828 2.84492 3.95093 2.57136 3.50188 2.40319C2.65968 2.07945 1.7999 1.83717 0.922485 1.67627C0.969102 1.23139 0.984719 0.778075 0.969383 0.316223C5.00261 0.316223 9.03585 0.316223 13.0691 0.316223C13.0537 0.778075 13.0694 1.23139 13.116 1.67627Z" fill="#EFEFEF"/>
</svg>
