<svg width="25" height="20" viewBox="0 0 25 20" fill="none" xmlns="http://www.w3.org/2000/svg">
<rect width="25" height="20" fill="#1E1E1E"/>
<g id="Desktop 1920 / &#208;&#180;&#208;&#190;&#209;&#136;&#208;&#186;&#208;&#190;&#208;&#187;&#209;&#143;&#209;&#130;&#208;&#176;&#208;&#188;" clip-path="url(#clip0_0_1)">
<rect width="1920" height="1080" transform="translate(-398 -428)" fill="#3B38A3"/>
<g id="Group 81">
<rect id="Rectangle 51" x="-38" y="-33" width="542" height="84" rx="42" fill="none"/>
<g id="Group 79">
<g id="Group">
<path id="Vector" opacity="0.98" fill-rule="evenodd" clip-rule="evenodd" d="M2.11138 0.0189346C3.49944 -0.102304 4.64643 0.35868 5.5523 1.40189C5.84341 1.8415 6.0739 2.31345 6.24378 2.81777C6.66304 4.05357 7.06914 5.29385 7.46209 6.53858C7.61514 7.00881 7.81271 7.45883 8.05479 7.8886C8.6195 8.62104 9.37133 8.97225 10.3103 8.94228C10.5966 8.91604 10.8819 8.88311 11.1664 8.8435C11.1719 6.98856 11.1664 5.13363 11.15 3.27876C11.1508 2.72594 11.063 2.18813 10.8866 1.66531C10.7323 1.34647 10.4853 1.13244 10.1457 1.02322C9.58608 0.865467 9.01535 0.783149 8.43346 0.776267C8.43346 0.589667 8.43346 0.4031 8.43346 0.2165C11.1445 0.2165 13.8555 0.2165 16.5665 0.2165C16.5665 0.4031 16.5665 0.589667 16.5665 0.776267C16.0204 0.785552 15.4826 0.856873 14.9531 0.990295C14.383 1.15457 14.0592 1.53324 13.9817 2.12629C13.9365 2.37714 13.9036 2.62959 13.883 2.88363C13.8555 4.87034 13.861 6.85695 13.8994 8.8435C14.5652 8.97073 15.2238 8.93231 15.8751 8.72826C16.4842 8.47033 16.9178 8.03678 17.1757 7.42762C17.6826 6.07163 18.1436 4.69964 18.5587 3.31168C18.7104 2.87846 18.875 2.4504 19.0526 2.02751C19.8859 0.55427 21.1536 -0.109779 22.8557 0.0353983C23.4386 0.0830115 23.938 0.308038 24.3539 0.710412C24.7201 1.158 24.797 1.65191 24.5844 2.19215C24.1779 2.77783 23.6236 2.98089 22.9216 2.80131C22.7654 2.7529 22.6117 2.69805 22.4606 2.63667C21.9833 2.33311 21.4674 2.13005 20.913 2.02751C20.5815 2.06854 20.3346 2.23318 20.1721 2.52142C20.0386 2.79034 19.9178 3.06476 19.8099 3.34461C19.4418 4.49865 19.0686 5.65112 18.6904 6.802C18.4762 7.4937 18.1579 8.13029 17.7355 8.71179C17.4924 8.97136 17.2345 9.21285 16.9617 9.4362C17.2336 9.65862 17.4916 9.90011 17.7355 10.1606C17.9348 10.4149 18.1214 10.6783 18.2952 10.9509C19.1267 12.3613 19.9499 13.7772 20.7648 15.1985C21.1384 15.8141 21.5445 16.4068 21.9831 16.9766C22.4686 17.5736 23.0777 17.9962 23.8106 18.2443C24.188 18.3743 24.5722 18.4786 24.9631 18.5571C24.9958 18.7314 25.0068 18.907 24.996 19.0839C23.3824 19.0949 21.7689 19.0839 20.1556 19.051C18.6716 16.2474 17.1624 13.4595 15.6281 10.6874C15.2162 10.0466 14.629 9.78319 13.8665 9.89718C13.861 12.0814 13.8665 14.2656 13.883 16.4498C13.8993 16.9599 14.0201 17.4428 14.2452 17.8986C14.5574 18.2115 14.936 18.3926 15.3812 18.4419C15.7743 18.5021 16.1694 18.5405 16.5665 18.5571C16.5665 18.7327 16.5665 18.9083 16.5665 19.0839C13.8555 19.0839 11.1445 19.0839 8.43346 19.0839C8.43346 18.9083 8.43346 18.7327 8.43346 18.5571C9.07666 18.5522 9.70228 18.4479 10.3103 18.2443C10.6814 18.0677 10.9064 17.7769 10.9853 17.3717C11.0859 16.9386 11.1408 16.4996 11.15 16.0546C11.1664 14.0022 11.1719 11.9497 11.1664 9.89718C10.4538 9.7796 9.87752 9.99909 9.43774 10.5557C7.88149 13.3717 6.35036 16.2035 4.84436 19.051C3.23108 19.0839 1.61763 19.0949 0.00401894 19.0839C-0.00678127 18.907 0.00418358 18.7314 0.0369464 18.5571C1.17107 18.4084 2.13146 17.9255 2.9181 17.1083C3.43783 16.3909 3.93174 15.6555 4.39984 14.9022C5.20939 13.5356 6.01062 12.1636 6.80354 10.7862C7.02607 10.4839 7.25656 10.1876 7.49502 9.89718C7.66654 9.73656 7.84764 9.58839 8.03833 9.45266C7.38906 8.9789 6.91161 8.36974 6.60598 7.62518C6.49623 7.3398 6.38645 7.05445 6.27671 6.76907C5.88809 5.54835 5.49297 4.33003 5.09132 3.11412C4.9868 2.74566 4.79474 2.43285 4.51508 2.17569C4.27369 2.04575 4.02124 2.01283 3.75775 2.0769C3.28146 2.24915 2.82047 2.45768 2.3748 2.70252C1.81816 2.92834 1.28035 2.89541 0.761351 2.60374C0.218146 2.09406 0.135828 1.51783 0.514395 0.875049C0.919205 0.351601 1.45154 0.0662185 2.11138 0.0189346Z" fill="#EFEFEF"/>
</g>
</g>
</g>
</g>
<defs>
<clipPath id="clip0_0_1">
<rect width="1920" height="1080" fill="white" transform="translate(-398 -428)"/>
</clipPath>
</defs>
</svg>
