<svg xmlns="http://www.w3.org/2000/svg" xmlns:xlink="http://www.w3.org/1999/xlink" version="1.1" x="0px" y="0px" viewBox="0 0 64 80" style="enable-background:new 0 0 64 64;" xml:space="preserve"><g><g><path d="M6.5268598,37.9494553c0.1747289,0.0103874,0.3487444,0.0154381,0.5226684,0.0154228    c0.3170285-0.0000114,0.6323433-0.0187454,0.9458666-0.0509415c1.6992569,2.4278908,5.1108971,3.7224884,8.0083189,3.8598404    c0.1001968,0.0042191,0.2002525,0.006321,0.3001003,0.006321c0.9879665-0.0000229,1.95541-0.2066002,2.8572159-0.5761032    c1.5555801,1.800457,3.8977757,2.8891144,6.2585087,3.0607262c0.2365627,0.0171013,0.4753075,0.0257988,0.715313,0.0257988    c1.9903469-0.0000381,4.0548611-0.6009254,5.4771786-1.9964752c1.4152679,1.351265,3.3180389,2.2236252,5.2466278,2.4030952    c0.0925751,0.0042191,0.1853485,0.0062943,0.2789764,0.0062943c2.5425377-0.0001678,5.4395447-1.5410652,6.7609787-3.6887093    c0.0489693-0.0810585,0.0913162-0.1658859,0.1375465-0.248558c1.4786987,1.1832085,3.3864784,1.8222389,5.2492485,2.0424576    c0.2382393,0.0248489,0.4746208,0.037014,0.7085876,0.037014c1.9815331,0,3.7891655-0.8738823,5.0946045-2.3133736    c0.7574539,0.2114029,1.5481033,0.3200645,2.3250313,0.3456421c0.0931358,0.0064392,0.186985,0.0096054,0.2818069,0.0096054    c2.4230614-0.0001678,5.3008804-2.0768471,3.9655952-4.6890602c-0.6360168-1.1436272-1.7505379-1.8237839-3.0063553-2.1324768    c0.3683472-1.2442665-0.1044044-2.658289-1.5304337-3.8064594c-1.8029747-1.4772854-4.1983833-1.8528252-6.4674721-1.8212662    c-0.9120636,0.0030251-1.8207207,0.1189842-2.7098541,0.324131c-0.2526131-0.6330185-0.6841431-1.2043056-1.1972961-1.6366692    c-1.6721497-1.2992458-3.8448334-1.7438774-5.9020271-1.4170876c-0.5841408-1.3472404-1.4278755-2.5764198-2.533371-3.5499001    c-4.7725143-4.1211109-12.3716545-3.6367264-17.010397,0.4569645c-1.4643936,1.2570915-3.0029678,3.1780872-3.5168743,5.2026939    c-2.2968721-0.6469479-4.8313866-0.6226444-7.0235701,0.3267918c-1.0028715,0.4561348-2.0289946,1.2113953-2.2284031,2.3663158    c-0.0386744,0.2143116-0.0343647,0.4279881,0.0038939,0.6337967c-1.4477758-0.005867-2.8787012,0.399271-4.1556563,1.0828171    c-0.7594142,0.4104233-1.5312917,0.8906937-2.0107162,1.6276588C0.8295773,36.4322891,4.4463634,37.9419632,6.5268598,37.9494553z     M6.1330147,32.3942642c1.6526117-0.4960155,3.3708487-0.811758,5.1040287-0.7677345    c-0.5483732-0.2450943-1.2811871-0.3663883-1.9143219-0.4386997c-0.0542536-0.0059586-0.1085062-0.0095291-0.1627731-0.014267    c0.0021944-0.6699924,0.4569263-1.3698578,1.2336855-1.8601875c1.5969305-1.0186577,3.5843821-1.1873112,5.4314041-1.0194893    c0.6177893,0.0700283,1.2221823,0.1982536,1.8148127,0.3696728c0.1813107,0.0526428,0.3617535,0.1095581,0.5408955,0.1703529    c1.5834942,0.5314713,3.0847569,1.3449955,4.5346889,2.1495247c-1.0095062-1.1707211-2.3322487-2.1527958-3.7621746-2.7734547    c-0.1494522-0.05933-0.3008003-0.115036-0.4532013-0.1684456c0.1214886-0.298502,0.2515335-0.5915661,0.3809547-0.876009    c0.7444572-1.5570488,1.7880287-2.9637222,3.1456566-4.0438404c4.3437977-3.7206306,11.390398-4.1069851,15.7848644-0.2741737    c0.949749,0.8406982,1.631321,1.9228649,2.2325058,3.0301151c-0.8453064,0.2220764-1.6570892,0.5741577-2.3874512,1.0603065    c-0.7353058,0.4262352-1.4781151,0.9222775-1.9907608,1.5977745c1.150753-0.728672,2.4859581-1.0867767,3.7521896-1.5836506    c0.453476-0.1777401,0.9268112-0.307888,1.4090919-0.3907814c0.0227699-0.003933,0.0457611-0.0065556,0.0685844-0.0102692    c2.0956345-0.3400326,4.3516121,0.2161312,5.8929787,1.7146549c0.1635246,0.146492,0.3613625,0.3791885,0.5470238,0.6522331    c-0.6112862,0.1711712-1.2113953,0.3828087-1.7937584,0.6312389c0.7749939-0.0624447,1.5597267-0.1146469,2.3464661-0.1568775    c0.0390511-0.0021305,0.0780754-0.0043621,0.1171913-0.0064011c0.7971802-0.0417385,1.5962029-0.0730381,2.3894386-0.0926285    c1.3667908-0.0182934,2.7609901,0.0456848,4.0662842,0.4819031c2.397644,0.8486042,3.7637215,2.4016418,3.4292717,4.1495438    c-1.3509178-0.170433-2.7825546,0.0421791-3.9167709,0.5380783c1.2059021-0.1042862,2.4469376,0.0107079,3.6516075,0.2565422    c-0.0000534,0.0001183-0.0001068,0.0002213-0.0001564,0.0003395c0.2210121,0.0448532,0.4411774,0.0947189,0.6597099,0.1487122    c0.000206-0.0003395,0.0003738-0.0006752,0.0005836-0.0010147c0.1931763,0.0473213,0.3851967,0.097393,0.5754433,0.1504402    c3.2686386,1.1158562,2.8864365,4.2715225-0.4112816,4.9345322c-0.6970978,0.1146736-1.4473877,0.0706367-2.1619339,0.0290947    c-0.2840919-0.0090523-0.567276-0.0255241-0.8494492-0.0493851c-0.0307159-0.0026093-0.0615082-0.0052605-0.0922241-0.0081024    c-0.8779945-0.0798149-1.7453194-0.2380066-2.5945053-0.5124893c0.5495911,0.4146919,1.1671371,0.7280235,1.8188629,0.9577332    c-0.7979736,0.5182152-1.6478462,0.9543152-2.5440445,1.2779121c-2.4948921,0.845047-5.3526802-0.0684166-7.6666641-1.5193977    c0.2201157-0.4819832,0.4030762-0.9811935,0.5392113-1.4925537c-0.0598373,0.0589905-0.0980568,0.1562157-0.158699,0.2334862    c-0.230072,0.3525238-0.4800987,0.7010231-0.747509,1.0406151c-0.1225395,0.1557617-0.2495842,0.3098602-0.3794708,0.4612617    c-1.6952591,1.9721718-4.0101395,3.5249214-6.6541061,3.480835c-1.8174515-0.1169701-3.4427719-1.0512199-4.835907-2.1803818    c-0.1402206-0.1139069-0.279211-0.2290115-0.4149017-0.3466568c-0.0182667-0.0174332-0.0373898-0.0357246-0.0556679-0.0531731    c-0.0001698,0.0001526-0.000351,0.0002823-0.0005188,0.0004387c-0.7319698-0.6962662-1.5889473-1.4004669-1.9373531-2.3638992    c-0.0789337,0.5400658,0.318222,1.2911835,0.6181526,1.8154488c0.2206478,0.3588448,0.474556,0.6963196,0.7512875,1.0149841    c-1.8419838,1.4082336-4.0843315,2.0239449-6.5587635,1.5570221c-1.7495499-0.3156776-3.3257618-1.2158966-4.5927067-2.4535179    c0.0000267-0.0000114,0.0000515-0.0000229,0.0000782-0.0000381c-0.0149956-0.0143204-0.0293922-0.0297432-0.0443096-0.0443077    c-0.0583153-0.0576668-0.116827-0.115139-0.1737938-0.1742096c-0.072752-0.0773354-0.1463375-0.1550598-0.2198296-0.2327881    c-0.0338974-0.035881-0.0675335-0.0715828-0.1013794-0.1075821c-0.6918545-0.7333717-1.3871231-1.4969292-1.799181-2.4181175    c-0.017437-0.0307388-0.008297-0.0822678-0.0348854-0.0980415c0.0349617,0.9904366,0.5254478,1.9107132,1.07477,2.7340546    c-0.428833,0.160553-0.8737373,0.2796783-1.3377514,0.3426552c-1.8528261,0.2849884-3.7231255-0.2251663-5.4288864-0.9264183    c-1.1066656-0.5142975-2.1334639-1.2465515-2.9999046-2.131218c1.4057913-0.2705917,2.7590561-0.827961,4.0069571-1.5335922    c-0.0141382-0.0074501-0.0340652-0.0008163-0.0540199,0.0058441c-0.0149555,0.0049706-0.0307417,0.0091133-0.0448666,0.0091133    c-1.4945126,0.2349281-3.0339966,0.6348991-4.5672617,0.7817688c-0.0000124-0.0000267-0.0000391-0.0000381-0.0000515-0.0000648    c-0.2097945,0.0202141-0.4189658,0.033886-0.6286306,0.043438c-0.9395962,0.0426369-1.8742976-0.0295219-2.7920318-0.3191185    C0.9135081,35.3829002,3.6528835,33.2076874,6.1330147,32.3942642z"/></g></g></svg>