<svg width="20" height="20" viewBox="0 0 20 20" fill="none" xmlns="http://www.w3.org/2000/svg">
<g clip-path="url(#clip0_474_5208)">
<path d="M4.58333 17.5C4.0308 17.5 3.5009 17.2805 3.11019 16.8898C2.71949 16.4991 2.5 15.9692 2.5 15.4167V1.25C2.5 0.918479 2.3683 0.600537 2.13388 0.366116C1.89946 0.131696 1.58152 0 1.25 0C0.918479 0 0.600537 0.131696 0.366116 0.366116C0.131696 0.600537 0 0.918479 0 1.25L0 15.4167C0 16.6322 0.482886 17.798 1.34243 18.6576C2.20197 19.5171 3.36776 20 4.58333 20H18.75C19.0815 20 19.3995 19.8683 19.6339 19.6339C19.8683 19.3995 20 19.0815 20 18.75C20 18.4185 19.8683 18.1005 19.6339 17.8661C19.3995 17.6317 19.0815 17.5 18.75 17.5H4.58333Z" fill="#fff"/>
<path d="M16.25 15C16.5815 15 16.8995 14.8683 17.1339 14.6339C17.3683 14.3995 17.5 14.0815 17.5 13.75V8.75C17.5 8.41848 17.3683 8.10054 17.1339 7.86612C16.8995 7.6317 16.5815 7.5 16.25 7.5C15.9185 7.5 15.6005 7.6317 15.3661 7.86612C15.1317 8.10054 15 8.41848 15 8.75V13.75C15 14.0815 15.1317 14.3995 15.3661 14.6339C15.6005 14.8683 15.9185 15 16.25 15Z" fill="#fff"/>
<path d="M6.25 15C6.58152 15 6.89946 14.8683 7.13388 14.6339C7.3683 14.3995 7.5 14.0815 7.5 13.75V8.75C7.5 8.41848 7.3683 8.10054 7.13388 7.86612C6.89946 7.6317 6.58152 7.5 6.25 7.5C5.91848 7.5 5.60054 7.6317 5.36612 7.86612C5.1317 8.10054 5 8.41848 5 8.75V13.75C5 14.0815 5.1317 14.3995 5.36612 14.6339C5.60054 14.8683 5.91848 15 6.25 15Z" fill="#fff"/>
<path d="M11.25 14.9997C11.5815 14.9997 11.8995 14.868 12.1339 14.6336C12.3683 14.3991 12.5 14.0812 12.5 13.7497V4.58301C12.5 4.25149 12.3683 3.93354 12.1339 3.69912C11.8995 3.4647 11.5815 3.33301 11.25 3.33301C10.9185 3.33301 10.6005 3.4647 10.3661 3.69912C10.1317 3.93354 10 4.25149 10 4.58301V13.7497C10 14.0812 10.1317 14.3991 10.3661 14.6336C10.6005 14.868 10.9185 14.9997 11.25 14.9997Z" fill="#fff"/>
</g>
<defs>
<clipPath id="clip0_474_5208">
<rect width="20" height="20" fill="white"/>
</clipPath>
</defs>
</svg>
