<svg xmlns="http://www.w3.org/2000/svg" xmlns:xlink="http://www.w3.org/1999/xlink" xml:space="preserve" version="1.1" style="shape-rendering:geometricPrecision;text-rendering:geometricPrecision;image-rendering:optimizeQuality;" viewBox="0 0 70553 88191.25" x="0px" y="0px" fill-rule="evenodd" clip-rule="evenodd"><defs><style type="text/css">
   
    .fil0 {fill:#FFD700;fill-rule:nonzero}
   
  </style></defs><g><path class="fil0" d="M39756 31580c1536,172 2766,288 3803,385 3190,299 4784,449 5104,1433 321,987 -881,2045 -3284,4160 -815,718 -1783,1570 -2853,2547 292,1422 573,2677 811,3735 700,3125 1051,4687 212,5296 -837,609 -2215,-207 -4969,-1838 -954,-566 -2085,-1235 -3304,-1928 -1218,693 -2349,1362 -3303,1928 -2755,1631 -4132,2447 -4970,1838 -838,-609 -488,-2171 213,-5296 237,-1058 519,-2313 811,-3735 -1071,-977 -2038,-1829 -2854,-2547 -2403,-2115 -3604,-3173 -3284,-4160 320,-984 1915,-1134 5105,-1433 1037,-97 2267,-213 3803,-385 580,-1281 1099,-2484 1537,-3498 1271,-2941 1906,-4411 2942,-4411 1037,0 1672,1470 2942,4411 438,1014 958,2217 1538,3498zm19813 -4905c1016,113 1814,188 2490,251 2292,215 3438,323 3702,1137 265,817 -598,1577 -2324,3096 -540,476 -1177,1036 -1870,1667 190,919 375,1744 533,2445 503,2245 755,3367 61,3871 -693,504 -1683,-82 -3661,-1254 -637,-377 -1385,-820 -2163,-1264 -778,444 -1526,887 -2162,1264 -1979,1172 -2968,1758 -3662,1254 -693,-504 -442,-1626 62,-3871 157,-701 342,-1526 532,-2445 -693,-631 -1329,-1191 -1870,-1667 -1726,-1519 -2589,-2279 -2324,-3096 265,-814 1411,-922 3703,-1137 676,-63 1473,-138 2489,-251 370,-820 713,-1615 1005,-2290 913,-2114 1369,-3170 2227,-3170 858,0 1315,1056 2227,3170 292,675 635,1470 1005,2290zm2363 1651c-843,-79 -1856,-174 -2917,-296l0 -1c-237,-28 -454,-174 -560,-407 -517,-1131 -882,-1977 -1186,-2681 -667,-1543 -863,-2315 -932,-2315 -68,0 -265,772 -931,2315 -300,695 -660,1528 -1166,2636 -90,240 -308,422 -580,453 -1062,122 -2075,217 -2917,296 -1674,157 -2470,109 -2490,173 -22,65 653,490 1916,1602 594,523 1307,1151 2183,1956l0 1c174,160 263,405 213,655 -235,1162 -444,2093 -618,2866 -368,1642 -662,2383 -607,2422 55,40 670,-468 2118,-1326 655,-387 1441,-853 2526,-1466 208,-120 473,-131 698,-5 1089,615 1878,1082 2534,1471 1448,858 2064,1366 2118,1326 55,-39 -239,-780 -607,-2422 -171,-763 -376,-1678 -608,-2818 -67,-246 3,-520 203,-704 876,-805 1590,-1433 2183,-1956 1264,-1112 1938,-1537 1917,-1602 -21,-64 -817,-16 -2490,-173zm-44485 -1651c1016,113 1814,188 2490,251 2292,215 3438,323 3702,1137 266,817 -597,1577 -2324,3096 -540,476 -1176,1036 -1869,1667 190,919 375,1744 532,2445 503,2245 755,3367 61,3871 -693,504 -1682,-82 -3661,-1254 -636,-377 -1385,-820 -2162,-1264 -778,444 -1527,887 -2163,1264 -1979,1172 -2968,1758 -3661,1254 -694,-504 -442,-1626 61,-3871 157,-701 342,-1526 532,-2445 -692,-631 -1329,-1191 -1869,-1667 -1727,-1519 -2590,-2279 -2324,-3096 264,-814 1410,-922 3702,-1137 676,-63 1474,-138 2490,-251 369,-820 713,-1615 1005,-2290 912,-2114 1369,-3170 2227,-3170 858,0 1314,1056 2226,3170 292,675 636,1470 1005,2290zm2363 1651c-843,-79 -1856,-174 -2917,-296l0 -1c-236,-28 -453,-174 -560,-407 -516,-1131 -882,-1977 -1186,-2681 -666,-1543 -863,-2315 -931,-2315 -69,0 -265,772 -932,2315 -300,695 -660,1528 -1166,2636 -90,240 -308,422 -580,453 -1061,122 -2074,217 -2917,296 -1674,157 -2469,109 -2490,173 -21,65 653,490 1916,1602 594,523 1308,1151 2184,1956l-1 1c174,160 263,405 213,655 -235,1162 -444,2093 -617,2866 -368,1642 -662,2383 -607,2422 54,40 669,-468 2117,-1326 655,-387 1442,-853 2526,-1466 208,-120 473,-131 698,-5 1089,615 1878,1082 2535,1471 1448,858 2063,1366 2118,1326 55,-39 -240,-780 -608,-2422 -171,-763 -376,-1678 -607,-2818 -67,-246 2,-520 202,-704 876,-805 1590,-1433 2184,-1956 1263,-1112 1937,-1537 1916,-1602 -21,-64 -816,-16 -2490,-173zm23622 5039c-1205,-113 -2655,-249 -4230,-430l0 -2c-236,-27 -453,-174 -559,-406 -732,-1601 -1272,-2850 -1720,-3888 -1024,-2371 -1536,-3557 -1647,-3557 -110,0 -622,1186 -1646,3557 -445,1029 -978,2264 -1699,3843 -90,240 -308,422 -580,453 -1575,181 -3025,317 -4231,430 -2571,241 -3856,362 -3891,469 -34,104 936,958 2876,2666 867,763 1910,1682 3167,2836l-1 1c174,160 263,405 213,655 -337,1669 -642,3027 -895,4157 -566,2521 -848,3781 -759,3846 90,66 1202,-593 3426,-1910 968,-574 2132,-1263 3667,-2129 208,-121 473,-132 698,-5 1539,869 2705,1559 3676,2134 2223,1317 3335,1976 3426,1910 89,-65 -194,-1325 -759,-3846 -251,-1119 -552,-2462 -886,-4109 -67,-246 2,-520 203,-704 1257,-1154 2299,-2073 3167,-2836 1940,-1708 2910,-2562 2876,-2666 -35,-107 -1321,-228 -3892,-469z"/></g><text x="0" y="70568" fill="#FFD700" font-size="5px" font-weight="bold" font-family="'Helvetica Neue', Helvetica, Arial-Unicode, Arial, Sans-serif">Created by nixart</text><text x="0" y="70573" fill="#FFD700" font-size="5px" font-weight="bold" font-family="'Helvetica Neue', Helvetica, Arial-Unicode, Arial, Sans-serif">from the Noun Project</text></svg>